<?xml version="1.0" encoding="UTF-8" standalone="no"?>
<!-- Created with Inkscape (http://www.inkscape.org/) -->

<svg
   width="512.0px"
   height="512.0px"
   viewBox="0 0 512.0 512.0"
   version="1.1"
   id="SVGRoot"
   sodipodi:docname="Mertis.svg"
   inkscape:version="1.2 (dc2aedaf03, 2022-05-15)"
   xmlns:inkscape="http://www.inkscape.org/namespaces/inkscape"
   xmlns:sodipodi="http://sodipodi.sourceforge.net/DTD/sodipodi-0.dtd"
   xmlns="http://www.w3.org/2000/svg"
   xmlns:svg="http://www.w3.org/2000/svg">
  <sodipodi:namedview
     id="namedview4959"
     pagecolor="#ffffff"
     bordercolor="#000000"
     borderopacity="0.25"
     inkscape:showpageshadow="2"
     inkscape:pageopacity="0.0"
     inkscape:pagecheckerboard="0"
     inkscape:deskcolor="#d1d1d1"
     inkscape:document-units="px"
     showgrid="false"
     inkscape:zoom="1.829812"
     inkscape:cx="444.85444"
     inkscape:cy="225.15974"
     inkscape:window-width="2560"
     inkscape:window-height="1369"
     inkscape:window-x="-8"
     inkscape:window-y="-8"
     inkscape:window-maximized="1"
     inkscape:current-layer="layer1"
     showguides="true">
    <inkscape:grid
       type="xygrid"
       id="grid5445" />
  </sodipodi:namedview>
  <defs
     id="defs4954" />
  <g
     inkscape:label="Layer 1"
     inkscape:groupmode="layer"
     id="layer1">
    <path
       style="fill:#000000;fill-opacity:1"
       d="M 52.464406,169.96282 255.21747,78.696609 465.0751,170.50932 265.05455,102.19629 v 378.72743 l -19.67415,-0.5465 0.5465,-378.18093 z"
       id="path6270" />
    <path
       style="fill:#1a1a1a;fill-opacity:1"
       d="m 52.464406,170.50932 c 194.009004,27.50738 211.521614,27.34969 412.610694,0 0,0 1.5198,-0.42318 0,84.16165 -1.85017,102.97216 -210.40413,226.25275 -210.40413,226.25275 0,0 -202.165015,-143.50107 -202.206564,-226.79925 -0.04155,-83.29818 0,-83.61515 0,-83.61515 z"
       id="path6280"
       sodipodi:nodetypes="ccsczc" />
    <path
       style="fill:#000000;fill-opacity:1"
       d="m 293.61236,418.97033 c 1.98523,-2.43327 4.68868,-5.90098 7.33107,-9.15378 2.31144,-2.84539 45.14802,-57.46601 46.89342,-59.58729 l -47.00315,59.45221 c -0.73613,-4.22408 -3.00627,-16.34824 -1.03834,-20.46678 2.44153,-5.10974 54.93638,-52.86525 56.80621,-49.46392 1.86983,3.40133 -17.45173,39.50596 -31.68782,55.26047 -5.44668,6.02763 -19.10262,13.51603 -22.79208,15.67663 -0.62882,0.36824 46.48729,-59.2507 46.48729,-59.2507 l -46.73986,59.08379 z"
       id="path10199-6"
       sodipodi:nodetypes="csccszscccc" />
    <path
       style="fill:#000000;fill-opacity:1"
       id="path7138"
       d="m 81.347207,252.27498 c 0.677546,-3.62905 1.730708,-7.17321 2.524076,-10.77926 0.750997,-3.42602 1.138967,-6.90768 1.434823,-10.39709 0.184819,-1.55248 0.180761,-3.12974 0.401084,-4.67808 0.08076,-2.04178 -6.83254,-4.77158 -4.936949,-2.54573 1.87211,1.10569 3.713343,2.2654 5.616329,3.31706 0.212308,0.11732 0.470447,0.1185 0.705904,0.17682 1.047253,0.25941 2.089006,0.4989 3.151966,0.68528 1.909746,0.23749 3.802133,0.63742 5.728389,0.71112 1.585609,0.0942 3.171594,0.17436 4.759761,0.2286 0.43689,-0.0194 0.95299,0.13878 1.38161,-0.004 0.19642,-0.0716 0.41111,-0.0781 0.6164,-0.11309 0.0522,-0.0511 0.0314,-0.0578 0.11613,-0.0105 -5.573313,-2.99359 -5.269076,-4.87506 -5.313273,-2.1474 -0.01493,0.92164 -0.04186,1.84282 -0.07038,2.76413 -0.05728,2.07751 -0.156129,4.15319 -0.157008,6.23178 0.08628,1.94161 0.145983,3.88277 0.157801,5.82635 -0.03265,1.71853 0.114911,3.42548 0.392615,5.11925 0.214446,1.28836 0.496038,2.56247 0.840856,3.82167 0.15111,0.55568 0.343297,1.10104 0.44476,1.66879 2.522949,5.08698 9.856179,3.34017 14.136449,3.01076 3.10568,-0.22387 6.21015,-0.45142 9.30026,-0.83926 2.63252,-0.41665 5.26446,-0.84143 7.894,-1.27957 0.99117,-0.2905 2.07959,-0.16093 3.06948,-0.42899 0.60375,-0.0469 0.16558,0.30954 0.76747,-0.61818 -0.0308,0.0236 -0.0732,0.10452 -0.0924,0.0707 -0.15636,-0.27476 -0.0306,-0.63194 -0.0261,-0.94805 0.0146,-1.04195 0.0244,-2.08245 0.0565,-3.12411 0.0795,-2.29881 0.14809,-4.58907 -0.14988,-6.87415 0.16072,-0.55579 -0.63372,-1.72456 -0.52693,-2.24619 -1.96046,-0.79801 -3.83962,-1.83601 -5.88138,-2.39404 -0.12826,-0.0351 -0.37495,4.08071 -0.38993,4.36381 -0.071,1.67836 -0.14672,3.35599 -0.23636,5.03329 -0.0183,0.47163 -0.0594,0.94138 -0.0932,1.41163 -0.0378,0.145 -0.0568,0.21748 -0.0982,0.40767 1.95818,1.13358 3.87818,2.33584 5.87454,3.40073 0.16832,0.0898 0.38071,0.025 0.57108,0.0374 0.28057,0.0181 0.56112,0.0368 0.8417,0.055 1.33166,0.0861 2.65479,0.14352 3.98935,0.16633 3.03401,-0.0493 6.0676,-0.1135 9.10046,-0.21097 1.53127,-0.0317 3.06434,-0.0157 4.59581,0.0155 1.59676,-0.001 3.19206,0.0664 4.78867,0.0815 0.94174,0.008 1.88229,0.063 2.82309,0.0921 0.4662,0.0828 0.38409,-0.35251 0.5827,-0.66672 0.0934,-1.50728 0.0365,-3.04279 0.0537,-4.55817 0.083,-3.91539 0.19489,-7.83046 0.32976,-11.74442 0.10668,-3.13906 0.25122,-6.27652 0.39186,-9.41414 0.06,-1.47896 0.11762,-2.95795 0.22128,-4.43463 -0.0474,-2.20597 -4.2498,-2.52735 -5.48592,-2.76905 -0.40125,-0.0784 0.0611,0.81572 0.11127,1.22149 0.0728,0.58979 0.17155,1.1761 0.25733,1.76415 0.84249,5.31788 2.13931,10.54797 3.24326,15.81453 0.82434,3.81443 1.46927,7.6619 1.89658,11.54018 0.1588,0.78975 0.0401,1.61962 0.23399,2.40221 2.56158,4.5017 4.0813,3.04887 6.559,2.472 0.93427,-0.21752 1.20816,-0.25149 2.19412,-0.42671 3.41697,-0.47729 6.88383,-0.49841 10.32861,-0.49274 3.78296,-0.0146 7.56118,-0.22677 11.34255,-0.3158 2.23483,-0.0146 4.46748,-0.1947 6.70175,-0.20463 0.62378,0.0627 1.29068,-0.0622 1.90107,0.1175 0.38841,0.0945 -0.0742,0.52744 0.56781,-0.57697 0.0166,-0.0287 -0.0498,0.0613 -0.0824,0.0556 -0.0244,-0.005 -0.01,-0.0485 -0.0149,-0.0728 0.0268,-1.78641 -0.60752,-3.47998 -1.15078,-5.15372 -0.65476,-1.83316 -1.32438,-3.66792 -2.28812,-5.36346 -1.88596,-0.83954 -3.65976,-1.99974 -5.65788,-2.51858 -0.33052,-0.0858 -0.12102,0.67525 -0.12587,1.01671 -0.0312,2.17691 0.68613,4.37579 1.22968,6.45614 0.48211,2.0778 1.13345,4.10406 1.77306,6.13551 0.21138,0.0159 -0.0108,0.42617 0.0541,0.45723 6.90351,3.30529 3.8217,2.79605 8.38716,2.15333 6.29262,-0.28624 12.59277,-0.16987 18.88897,-0.13392 3.49832,0.0684 7.00398,-0.12598 10.50043,0.0417 0.47077,-0.01 1.06191,0.14213 1.43031,-0.22055 l -5.79405,-3.78627 v 0 c 0.33754,-0.3314 -0.75024,0.0504 -0.86219,-0.005 -3.27292,0.3973 -6.59436,0.26896 -9.88138,0.41568 -6.2699,0.0789 -12.55151,-0.10963 -18.81078,0.27697 -0.63527,0.0638 -1.27591,0.0871 -1.90582,0.19125 -0.41091,0.0679 -1.50109,0.0284 -1.20691,0.32327 1.38017,1.38305 3.22374,2.20866 4.83561,3.31298 -0.19898,0.0283 -0.24592,-0.20386 -0.32392,-0.34763 -0.74285,-1.98016 -1.17821,-4.07519 -1.80007,-6.09349 -0.40218,-1.6349 -0.87366,-3.27533 -1.07051,-4.95235 -0.0471,-0.40185 -0.0734,-0.80696 -0.0737,-1.21157 -5.7e-4,-0.26057 0.27512,-0.61465 0.0723,-0.77834 -1.60885,-1.29908 -3.47259,-2.24611 -5.20889,-3.36915 0.38127,0.51978 0.10958,0.0987 0.45507,0.87157 0.62977,1.4088 1.32137,2.79255 1.76557,4.27762 0.48212,1.53981 1.009,3.16175 0.88212,4.79503 -0.0304,0.50896 -0.33665,0.65411 0.4324,-0.16077 0.0116,-0.0122 -0.004,0.12511 -0.0416,0.0673 -0.39329,0.30166 -1.18834,-0.0565 -1.6202,0.13642 -2.17041,0.10788 -4.34029,0.22262 -6.5099,0.35786 -3.75768,0.17407 -7.51762,0.34077 -11.28011,0.34107 -3.47472,0.0278 -6.96333,0.0655 -10.41059,0.54968 -1.03088,0.1711 -2.084,0.31536 -3.07322,0.67083 -2.45693,0.88289 1.76256,1.71342 4.13783,3.39201 -0.2049,-0.77282 -0.23274,-1.57851 -0.33155,-2.36798 -0.5123,-3.90354 -1.30709,-7.76513 -1.98609,-11.64146 -1.05571,-5.20137 -2.27059,-10.37879 -3.00512,-15.63872 -0.0608,-0.56214 -0.13449,-1.12304 -0.1825,-1.68643 -0.0323,-0.37881 0.22679,-0.88748 -0.0582,-1.13906 -1.30231,-1.14941 -5.07562,-5.80848 -5.50829,-3.26961 0.006,1.5066 -0.0317,3.01254 -0.0689,4.51859 -0.0639,3.16973 -0.12359,6.33958 -0.22073,9.50856 -0.11731,3.90004 -0.25762,7.79963 -0.41591,11.69821 -0.0735,1.47166 -0.22239,2.95978 -0.20418,4.42882 0.11836,0.20133 0.21466,-0.31961 -0.16759,-0.18536 -0.88029,0.0158 -1.76079,0.0607 -2.64201,0.0373 -1.64937,-0.0524 -3.29816,-0.12814 -4.94662,-0.20384 -1.50945,-0.0309 -3.01341,0.001 -4.52099,0.0864 -3.007,0.11385 -6.01492,0.35484 -9.0256,0.22141 -1.32146,-0.0438 -2.64762,-0.0768 -3.96487,-0.20136 -2.68883,-0.25403 -4.67528,-1.89683 3.64395,2.97591 -0.12527,0.3366 -0.10244,0.36412 -0.13015,0.16701 -0.007,-0.48807 -0.0192,-0.97599 -0.008,-1.46449 0.0165,-1.69069 0.0472,-3.3809 0.13969,-5.06968 0.0659,-1.18102 0.1196,-2.3644 0.28021,-3.53747 0.0323,-0.23597 0.30135,-0.55988 0.1129,-0.70552 -1.756,-1.35712 -3.75209,-2.37128 -5.62815,-3.55692 0.40075,-0.0587 0.47314,1.70653 0.62304,1.91862 0.44571,2.24061 0.42731,4.48986 0.21853,6.76151 -0.0701,1.47751 -0.13878,2.96279 -0.32448,4.43012 0.93275,-1.0019 0.62951,-0.51246 0.27011,-0.45102 -0.98925,0.0459 -1.93959,0.47493 -2.9249,0.5683 -2.59522,0.52809 -5.18901,1.05366 -7.83223,1.28151 -3.05795,0.38113 -6.12463,0.67107 -9.19945,0.88024 -2.7365,0.21577 -5.47455,0.41265 -8.20794,0.66576 1.57117,1.05282 3.15203,2.09132 4.71353,3.15845 0.0276,0.0189 -0.0457,0.0931 -0.0708,0.0709 -0.0659,-0.058 -0.0301,-0.30248 -0.11649,-0.34761 -0.46036,-1.85914 -1.16844,-3.78949 -1.44005,-5.52744 -0.30065,-1.66357 -0.47933,-3.34234 -0.45938,-5.0361 -3.3e-4,-1.95141 -0.0713,-3.9014 -0.18554,-5.84947 -0.0606,-2.07504 0.0462,-4.14824 0.11419,-6.22218 0.17176,-5.05593 1.20334,-2.72355 -5.114591,-7.37581 0.08362,0.10276 -0.02032,0.01 -0.09909,0.0321 -0.17468,0.0407 -0.346605,0.10724 -0.52378,0.12202 -0.388121,-0.0926 -0.832435,0.0336 -1.222833,0.0267 -1.513254,0.0351 -3.031908,0.0183 -4.539435,-0.11581 -1.920686,-0.24373 -3.862664,-0.35264 -5.75074,-0.81202 -1.048146,-0.22991 -2.116067,-0.43621 -3.143687,-0.7495 -2.103801,-0.64139 -2.875446,-1.62965 3.810267,2.63326 -2.417575,-0.6951 -0.351816,-0.0679 -5.899994,-3.12377 -0.0039,-0.002 0.0042,-0.008 0.0062,-0.0119 -0.04302,-8.8e-4 -0.08606,-0.002 -0.129095,-0.002 -0.09045,0.06 0.03995,0.29511 -0.02511,0.32467 0.114834,1.60279 -0.04016,3.2179 -0.08434,4.81987 -0.250831,3.47421 -0.65641,6.93776 -1.347182,10.3546 -0.778526,3.58966 -1.744096,7.12767 -2.767435,10.65484 l 5.300903,3.03285 z"
       sodipodi:nodetypes="cccccssccccccscccccccccccsscccsccccsccccccccccccssccccscccccsccccscccccccccscccsccccscccsccscccccsccccsscccccccccccccccsccccccccccsccccccccccccscscccccccc" />
    <path
       style="fill:#000000;fill-opacity:1"
       id="path7140"
       d="m 288.56018,222.89382 c -1.2736,3.95632 -1.92503,8.0757 -2.45562,12.18689 -0.40872,2.86706 -0.66248,5.75244 -0.97896,8.63011 -0.17774,1.59604 -0.37077,3.19231 -0.63035,4.77745 -0.0921,0.65611 -0.27703,1.30013 -0.33555,1.96069 -0.0387,0.24911 -0.0225,0.50597 -0.0617,0.75445 1.3045,4.22338 5.58914,3.20194 8.37455,2.81423 4.9907,-0.56633 10.01176,-0.79014 15.02956,-0.94046 4.78886,-0.12149 9.58084,-0.087 14.37055,-0.0293 1.95916,0.003 3.91711,0.0244 5.87418,0.11506 0.25026,0.0285 0.51234,0.024 0.75638,0.0772 0.12231,-0.26351 0.24462,-0.52703 0.36693,-0.79054 -0.0329,0.061 -0.0992,0.24019 -0.13942,0.10836 0.0164,-0.23633 0.0129,-0.47379 0.0155,-0.71084 0.0288,-0.6496 -0.0424,-1.29805 -0.0835,-1.94601 -0.0922,-2.71279 -0.16945,-5.42676 -0.15088,-8.14135 0.10615,-4.06519 0.13706,-2.23456 -5.65396,-4.88672 0.14129,3.27129 0.15205,6.54786 0.15038,9.82205 0.21093,1.38158 -0.37009,2.91658 0.0327,4.27493 -0.21491,2.1617 -0.0547,0.27228 5.68656,2.69403 0.002,9.4e-4 0.018,-0.22147 0.0889,-0.42518 -0.31009,0.39053 -0.17387,0.22023 0.56225,0.23543 3.37343,-1e-4 6.74734,-0.0195 10.12066,0.0128 2.71561,0.0452 5.43159,0.0571 8.14742,0.0866 1.34186,0.0138 2.68368,0.0318 4.02552,0.0471 0.77249,0.004 1.54498,0.004 2.31747,0.002 1.16996,-0.0111 2.34009,0.0236 3.50942,0.0596 0.83051,0.0293 1.66012,0.0139 2.48919,0.0628 0.16056,-0.005 0.32209,0.0177 0.48012,0.0328 0.005,3e-5 0.009,7e-5 0.014,1e-4 0.0866,-0.23254 0.204,-0.45585 0.2599,-0.69762 0.03,-0.12983 -0.0691,-1.43576 -0.0695,-1.64147 -0.0187,-2.02637 -0.0567,-4.05048 -0.15821,-6.07466 -0.29658,-3.36402 -0.39089,-6.73558 -0.43147,-10.11168 0.12649,-3.5227 0.47019,-7.0291 0.64901,-10.54963 0.0347,-1.58926 -0.014,-3.17913 -0.12091,-4.76478 -0.3869,-2.19232 -3.72668,-2.23031 -5.62797,-2.91227 -0.16352,-0.0587 -0.0912,0.33561 -0.12364,0.50626 -0.12264,0.64441 -0.12703,1.00276 -0.18202,1.69812 -0.11021,3.68328 -0.15187,7.36834 -0.18405,11.05302 -0.041,2.47571 -0.0984,4.95082 -0.12743,7.42669 0.003,1.79136 -0.002,3.58307 -0.0562,5.37372 -0.002,1.14758 -0.0286,2.29504 -0.0333,3.44253 -0.0358,0.68736 0.0646,1.39704 -0.0334,2.07977 0.005,0.13638 -0.0648,0.29881 0.0614,0.38423 6.20471,3.71684 4.3238,3.22009 9.30448,3.1692 2.91309,-0.12863 5.83553,-0.0239 8.75266,-0.0215 2.03577,0.0564 4.07319,0.003 6.10884,0.0467 0.53079,0.0658 1.08113,-0.005 1.60946,0.0833 0.47177,0.0985 0.17612,-0.76488 0.15952,-0.99055 0.0259,-2.22996 -0.11543,-4.44231 -0.46639,-6.64359 -0.71577,-3.31197 -1.93704,-6.48116 -2.72708,-9.77364 -0.17451,-0.0643 -0.46808,-2.85671 -0.50329,-2.87203 -1.37298,-0.59753 -2.78699,-1.09595 -4.18048,-1.64393 -0.0529,3.3157 0.84389,6.57887 1.59497,9.78478 0.71596,2.86235 1.13588,5.7769 1.5722,8.68865 0.44239,2.60284 -2.5035,0.49435 4.92742,2.92839 0.007,0.002 0.007,-0.39006 0.008,-0.83752 -0.0112,-0.93394 -0.0116,-1.86883 -0.0489,-2.80211 -0.0246,-1.03364 0.15578,-1.42514 1.1827,-1.66817 2.11565,-0.24939 4.21006,-0.004 6.31022,0.23826 1.29548,0.17182 2.60411,0.2026 3.89398,0.41329 2.123,0.42046 4.43362,0.80862 -4.28509,-2.52305 -0.2279,-0.0871 -0.0927,0.47905 -0.13909,0.71858 -0.28241,2.05552 -0.37472,4.12899 -0.43344,6.20085 -0.002,0.59478 -0.16052,1.18035 -0.17894,1.77265 -0.27119,0.5013 -0.0209,0.0736 1.41608,0.44176 0,0 2.58398,1.994 2.58398,1.994 v 0 c 1.32828,0.34858 2.10456,0.8561 1.66057,0.40103 -0.11,-0.64495 -0.22688,-1.28869 -0.25819,-1.9444 -0.0354,-2.0418 -0.011,-4.09624 0.3638,-6.11064 0.0463,-0.22467 0.30763,-0.51858 0.13892,-0.674 -2.38264,-2.1949 -3.06837,-4.08385 -5.24872,-3.49024 -1.15871,0.15708 -2.33052,-0.0947 -3.48854,-0.15081 -2.12846,-0.19485 -4.30936,-0.48965 -6.42807,-0.10658 -1.42047,0.38744 -1.83037,0.49097 -1.89275,2.04284 -0.0308,0.92149 -0.0171,1.84432 -0.0159,2.76625 2.2e-4,0.13799 10e-4,0.27599 6.5e-4,0.41398 -5e-4,0.13493 -0.11625,0.33041 -0.004,0.40477 7.97082,5.26421 4.88524,4.17609 4.57491,1.84045 -0.54003,-3.00954 -1.32224,-5.97562 -2.03038,-8.94816 -0.75222,-3.15968 -1.50604,-6.35025 -1.57075,-9.61414 -5.56937,-3.36896 -4.11831,-3.391 -3.34981,0.49838 0.74247,3.0339 1.56427,6.074 1.72039,9.20879 0.08,2.09777 -10e-4,4.17343 -0.18901,6.26229 -0.021,0.8864 -0.12932,0.70745 0.14672,0.008 -0.45312,0.0691 -0.92308,0.0382 -1.38031,0.0832 -1.99294,0.0458 -3.98785,-0.0117 -5.98093,0.0463 -2.9357,0.002 -5.87515,0.10639 -8.80757,-0.0174 -1.038,-0.008 -2.07699,-0.0304 -3.11506,-0.0202 -2.7038,0.0266 0.76263,0.5729 4.22807,3.21733 0.14788,0.0167 0.0425,-0.2046 0.0614,-0.32172 -0.0872,-0.6967 -0.006,-1.41325 -0.0333,-2.11378 -0.005,-1.15899 -0.0317,-2.31796 -0.034,-3.47703 -0.0542,-1.8109 -0.0625,-3.62281 -0.0624,-5.43442 -0.0331,-2.51344 -0.0903,-5.02639 -0.10443,-7.54006 0.0155,-3.6438 -0.004,-7.29636 0.30702,-10.92963 0.10735,-0.92169 0.071,-0.80539 0.22886,-1.58122 0.028,-0.13764 0.20922,-0.3322 0.0929,-0.41101 -1.06527,-0.72205 -5.63532,-5.21028 -5.2669,-2.81012 0.33431,1.57232 0.44024,3.18813 0.41503,4.79295 -0.0747,3.53007 -0.61451,7.03244 -0.68058,10.56419 0.026,3.30611 0.0216,6.61212 0.0162,9.91694 0.0288,1.97068 -0.004,3.94061 -0.10032,5.90909 -0.0144,0.4892 -0.0273,0.97765 -0.0348,1.46693 -0.002,0.11509 -0.12356,0.35633 -0.009,0.3452 0.17334,-0.0168 0.18369,-0.39143 0.3602,-0.37843 -0.0977,0.0155 -0.26218,0.0412 -0.37729,0.0297 -0.7956,0.0429 -1.59114,-0.002 -2.38824,-8.6e-4 -1.16888,-0.0137 -2.33733,-0.0534 -3.50646,-0.0402 -0.77079,-0.003 -1.5416,-0.002 -2.31239,0.002 -1.29801,0.0159 -2.59598,0.0346 -3.89402,0.0481 -2.64573,0.0285 -5.29146,0.0373 -7.93719,0.0634 -3.42882,0.006 -6.85916,-0.0376 -10.28621,-0.14609 -0.44449,-0.009 -1.00596,-0.19204 -1.22167,0.30942 -0.7928,2.31586 5.3077,5.93665 5.52772,3.71079 0.36021,-1.01223 -0.32267,-3.25374 -0.1329,-4.31908 -0.10438,-3.24302 -0.17795,-6.49041 0.005,-9.73216 -5.93538,-3.33009 -5.71554,-5.05839 -5.65389,-0.87491 0.0182,2.66338 -0.0559,5.32615 -0.15073,7.98763 -0.0419,0.61721 -0.11076,1.23395 -0.0875,1.85295 -9.5e-4,0.22905 -0.006,0.45842 -0.0103,0.68707 -0.10487,0.39999 -0.21198,1.30203 0.3759,-0.20095 -0.16722,0.0593 -0.39026,0.0386 -0.57177,0.072 -1.85692,0.088 -3.71474,0.0973 -5.57358,0.10704 -4.68875,0.0792 -9.37712,0.17084 -14.06546,0.26997 -5.10264,0.13692 -10.20537,0.3177 -15.28752,0.82461 -0.55245,0.0584 -1.10739,0.0966 -1.65735,0.17508 -0.3325,0.0474 -1.2401,-0.0188 -0.98711,0.20212 1.53128,1.33711 4.08438,5.08158 5.11122,3.32708 -0.0375,-0.23823 -0.0182,-0.48476 -0.0173,-0.72467 0.0628,-0.6587 0.1171,-1.31858 0.22869,-1.97159 0.23527,-1.60343 0.40582,-3.21489 0.5935,-4.82437 0.35329,-2.89504 0.56371,-5.80128 0.82454,-8.70574 0.47862,-4.0397 1.00898,-8.14784 2.60208,-11.9251 0,0 -5.58621,-3.1184 -5.58621,-3.1184 z" />
    <path
       style="fill:#000000;fill-opacity:1"
       id="path7142"
       d="m 113.81428,309.00106 c 1.78731,-3.17483 2.70413,-6.72 3.18409,-10.30509 0.30921,-2.96536 0.14119,-5.94257 0.006,-8.91105 0.14925,-0.51049 -0.13197,-1.01004 -0.15729,-1.49754 -0.003,-0.0608 0.0941,-0.22243 0.10384,-0.3075 0.1963,-0.22848 -0.22625,0.24862 -0.10151,0.4388 0.0858,0.13088 0.31303,-7.3e-4 0.46955,-0.002 1.0437,-0.007 2.08623,-0.003 3.12993,0.009 4.0073,0.0178 8.01465,0.063 12.0214,-0.0174 2.98419,-0.046 5.96721,-0.20612 8.95203,-0.21075 0.46482,0.0549 0.94135,-0.009 1.40428,0.0412 -3.99246,-1.89951 -4.98136,-4.69064 -5.02023,-2.09759 -0.0146,0.97164 0.0188,1.93928 0.0575,2.91003 0.28064,3.06157 0.94968,6.06337 1.58333,9.06534 0.45665,2.1058 0.88784,4.21653 1.17096,6.35316 0.13763,1.28335 0.17598,2.5765 0.15882,3.86659 -0.0551,0.26509 0.0357,0.56063 -0.0425,0.82087 -3.94033,4.46345 6.08837,3.05504 7.58168,2.9197 3.32907,-0.25202 6.66308,-0.42952 9.9989,-0.56317 2.35465,-0.11515 4.71254,-0.10522 7.06918,-0.10619 0.4964,0.007 0.99501,0.019 1.49027,0.0582 0.14205,0.12207 0.49048,0.17185 0.7408,0.16021 0.23165,0.004 0.46257,-0.0167 0.69366,-10e-4 0.19279,0.0172 0.3972,-0.0369 0.59387,-0.0517 2.56147,-0.17985 5.13068,-0.21925 7.69734,-0.2606 3.43428,-0.0374 6.86883,-0.0232 10.30322,-0.0156 2.03672,0.0186 4.07369,0.0232 6.11039,0.0472 1.21523,-0.011 2.43026,0.009 3.64539,0.0186 0.5658,-0.008 1.12994,0.005 1.69334,0.0541 0.0724,-0.006 0.1464,0.006 0.21404,0.0203 0.006,-0.30543 0.0399,-0.61151 0.019,-0.91628 -0.029,-0.42278 -0.21462,-0.82002 -0.31065,-1.23277 -0.29514,-1.26857 -0.54575,-2.54448 -0.78191,-3.82508 -0.58441,-3.48541 -0.89398,-7.00808 -1.37815,-10.5074 -0.38705,-2.17351 -0.74717,-4.33551 -0.79111,-6.54541 -0.0461,-1.20529 -0.0442,-2.41209 -0.0543,-3.6182 -0.0837,-0.33462 0.12782,-0.73875 0.0317,-1.06735 -4.99809,-3.12315 -5.1382,-3.98304 -5.14314,-1.53193 -0.002,0.84103 -0.007,1.68192 -0.006,2.52321 0.0262,2.52206 -0.0587,5.04361 -0.11599,7.5647 -0.021,2.08974 -0.16918,4.17435 -0.12192,6.26437 0.0754,1.45439 0.36678,2.88281 0.86715,4.24845 0.26287,0.62702 0.51925,1.26021 0.86131,1.84914 0.25642,0.2772 0.40891,0.6056 0.54937,0.95202 0.18537,0.39186 0.19513,0.82681 0.27978,1.24227 1.00784,2.42532 -1.71336,-0.60737 6.06355,3.44493 2.09997,-0.026 4.19413,-0.20618 6.28606,-0.37736 2.87535,-0.26671 5.73395,-0.67775 8.59616,-1.05418 3.04579,-0.43523 6.11699,-0.63966 9.18902,-0.76671 1.95099,-0.0718 3.90295,-0.0928 5.85414,-0.0278 0.35695,0.0256 0.74117,-0.0149 1.07118,0.14241 0.002,0.0136 0.003,0.0273 0.005,0.0409 0.16067,-0.27458 0.32713,-0.54585 0.482,-0.82374 0.0465,-0.0834 -0.11323,0.15441 -0.1602,0.23758 0,0 -6.35813,-3.12496 -6.35813,-3.12496 v 0 c -0.37051,0.7798 0.45036,-0.34804 0.47406,-0.40307 0.009,0.18805 -0.64174,0.0995 -0.7439,0.13569 -1.87761,0.0928 -3.75706,0.12945 -5.63492,0.21796 -3.08191,0.16054 -6.16251,0.37376 -9.22015,0.80681 -2.85472,0.36424 -5.70216,0.79684 -8.57154,1.03469 -2.13141,0.1672 -4.2695,0.31919 -6.40844,0.2147 5.46422,3.23081 6.66888,4.22459 4.99643,2.97449 -0.33139,-0.36803 -0.40205,-0.81732 -0.50589,-1.2913 -0.16129,-0.37701 -0.26385,-0.77991 -0.51744,-1.10443 -0.46856,-0.48007 -0.68548,-1.14621 -0.98995,-1.7299 -0.56653,-1.31664 -0.98676,-2.688 -1.0893,-4.12668 -0.12082,-2.11132 -0.10031,-4.23217 -0.11079,-6.34632 0.0187,-2.52513 0.0775,-5.04877 0.11782,-7.57352 0.001,-0.84358 -0.004,-1.68661 -0.006,-2.52993 -0.006,-2.40995 -1.215,-2.59374 -5.14563,-3.71935 -0.0415,0.35597 0.0437,0.73808 0.0179,1.10081 -0.014,1.21613 -0.0112,2.43141 0.0485,3.64667 0.15982,2.15911 0.1634,4.32766 0.50981,6.46891 0.52488,3.44914 0.90806,6.92247 1.17618,10.40074 0.12404,1.50444 0.28021,2.9887 0.55446,4.47369 0.0325,0.1758 -0.0778,0.52213 0.10094,0.52674 0.18149,0.005 0.10807,-0.34663 0.16211,-0.51995 -0.0517,0.0115 -0.10489,0.0263 -0.15747,0.0203 -0.51293,0.0581 -1.02811,0.0577 -1.54441,0.054 -1.19871,0.01 -2.39732,0.029 -3.59613,0.017 -1.99318,0.0231 -3.9866,0.0258 -5.97976,0.0492 -3.40427,0.018 -6.80843,0.0516 -10.21251,0.0906 -2.65905,0.0245 -5.31823,0.0455 -7.97709,0.0817 -0.21561,0.002 -0.45745,-0.0249 -0.66817,-5.3e-4 -0.20985,0.0391 -0.426,0.0335 -0.63675,0.0722 -1.0026,0.10425 0.18515,0.0702 -0.0812,0.24393 -0.4468,0.0274 -0.89367,0.058 -1.34126,0.0686 -2.29836,0.0581 -4.59402,0.19561 -6.89236,0.25512 -3.38009,0.14746 -6.75892,0.32566 -10.1378,0.49807 -0.36364,0.0324 -0.72748,0.0627 -1.09093,0.0972 -0.28548,0.0271 -1.07179,-0.10106 -0.85581,0.0876 1.39561,1.21884 5.54409,4.70909 4.60689,3.11067 -0.0542,-0.2906 0.0187,-0.59658 -0.0364,-0.8887 -0.0663,-1.33238 -0.15362,-2.66345 -0.27616,-3.99198 -0.23822,-2.18829 -0.79865,-4.31699 -1.2734,-6.46285 -0.65639,-2.96124 -1.39903,-5.9231 -1.60344,-8.95948 -0.10534,-4.90799 1.34117,-2.54218 -4.88892,-6.80582 -0.33235,0.1157 -0.77629,0.0357 -1.12396,0.15249 -2.87116,0.25045 -5.75702,0.31897 -8.63593,0.42136 -4.04678,0.0404 -8.0941,-0.008 -12.14017,-0.0908 -1.35284,-0.035 -1.16309,-0.0243 -2.46485,-0.0793 -0.26595,-0.0112 -0.53192,-0.0224 -0.79769,-0.0373 -0.1607,-0.009 -0.33365,-0.0978 -0.48162,-0.0345 -0.19595,0.0838 -0.77571,0.57857 -0.4613,0.44273 0.36935,0.58757 0.18929,1.20267 0.40587,1.87767 0.38086,2.95959 0.50611,5.95793 0.27961,8.9358 -0.42563,3.50984 -1.16257,7.05027 -3.16681,10.03457 0,0 4.32998,2.55553 4.32998,2.55553 z" />
    <path
       style="fill:#000000;fill-opacity:1"
       id="path7146"
       d="m 288.60473,312.95583 c 0.4968,-3.57728 0.79956,-7.17652 1.08698,-10.77534 0.1965,-2.88624 0.1815,-5.78002 0.18099,-8.67104 -0.0191,-1.3279 -0.001,-2.65979 -0.33021,-3.95366 -0.27294,-0.90253 -0.61893,-1.77815 -0.86624,-2.68853 -0.1122,-0.57002 -0.30883,-1.11399 -0.5275,-1.65024 -0.047,-0.1981 -0.34503,-0.4777 -0.0135,-0.48059 -0.42158,0.68999 -0.25093,0.46306 0.60448,0.43708 2.92795,-0.0294 5.85614,-0.0395 8.78424,-0.0369 3.89475,0.0362 7.78665,-0.0273 11.67604,-0.23212 3.92138,-0.25581 7.82807,-0.68975 11.74638,-0.98728 1.17942,-0.0501 2.36055,-0.24396 3.54307,-0.23695 2.19403,-0.0662 -5.12006,-2.96509 -5.27768,-3.03658 -0.16946,-0.0769 -0.0457,0.36969 -0.0549,0.55555 -0.0116,0.23479 -0.005,0.47013 -0.007,0.70519 -0.008,2.21435 0.092,4.42667 0.1283,6.64034 0.0799,2.45292 0.26061,4.90054 0.43002,7.3484 0.18927,2.5865 0.37595,5.17462 0.5041,7.76498 0.077,1.35809 0.16209,2.71624 0.42243,4.0531 -0.0484,0.29946 0.17526,0.54859 0.18439,0.83472 2.05929,1.04158 4.11857,2.08317 6.17786,3.12475 0.2897,-0.20996 0.19531,0.27172 0.11495,0.22115 -6.22917,-3.91989 -3.70629,-4.81853 -6.08302,-3.93236 -1.45556,4.52255 7.11434,3.89566 9.60716,3.78839 2.05101,-0.0604 4.10294,-0.0654 6.15463,-0.0541 1.02399,0.0123 2.04794,0.0245 3.07198,0.0318 0.82543,0.0189 1.65097,0.0321 2.47654,0.0478 1.17984,0.0252 2.35997,0.0192 3.53996,0.0279 0.97459,-0.003 1.94895,0.0138 2.92343,0.0214 0.60061,-0.009 1.20086,0.007 1.80146,0.004 0.53668,0.0139 1.0699,-0.0149 1.605,-0.0484 0.30027,-0.034 0.60161,-0.0132 0.90159,-0.0129 0.0399,-7.9e-4 0.0801,0.004 0.11905,0.0123 0.11672,-0.0396 0.32155,-0.0116 0.47101,-0.01 0.0771,0.0153 0.13385,0.006 0.20505,0.0297 0.89085,-0.58318 0.12615,-0.34747 0.15501,-0.92805 0.0957,-0.34858 -0.0422,-0.63691 -0.17909,-0.94673 -0.0992,-0.14977 -0.18489,-0.43508 -0.37474,-0.37237 -0.52727,-0.54358 -0.65559,-1.48919 -0.83567,-2.20675 -0.15339,-0.65326 -0.25388,-1.31292 -0.3141,-1.97962 0.0168,-0.11037 -0.0414,-0.23496 -0.0699,-0.29045 -0.0702,0.15852 -0.24493,0.26597 -0.28529,0.43445 -0.0301,0.12542 0.25415,-0.0509 0.38308,-0.0544 0.35903,-0.01 0.26954,-0.007 0.65428,-0.0114 1.05749,0.008 2.11357,-0.0452 3.17035,-0.0675 0.52089,0.0119 1.04117,0.0381 1.56221,0.0411 0.36921,-0.0303 0.73383,0.046 1.10252,0.0635 0.57786,-0.004 1.15384,0.005 1.73112,0.0308 0.25478,0.0685 0.80265,-0.0965 0.95245,0.18729 -6.11048,-3.9424 -4.89054,-4.24601 -4.92487,-1.04104 -0.035,0.83125 -0.0278,1.66111 -3.5e-4,2.49222 0.005,0.42126 0.076,0.84234 0.18073,1.25004 0.007,0.13997 0.0548,0.28187 0.11082,0.40658 -1.28048,3.38307 6.20181,3.13977 8.34586,3.15568 3.19584,0.0349 6.39169,0.007 9.58762,0.0149 3.29688,0.0796 6.59081,-0.0407 9.88129,-0.23656 1.52235,-0.0811 3.04129,-0.21488 4.56457,-0.27894 0.29567,0.004 0.60146,-0.0345 0.89194,0.0286 0.34838,1.38034 -0.84361,-0.50773 -4.05532,-2.62196 0,0 1.73622,1.22262 1.73622,1.22262 v 0 c -3.14012,-2.60777 -2.7017,-4.07511 -3.37754,-2.7301 -0.23668,0.0913 -0.51833,0.0594 -0.76672,0.10815 -1.45969,0.13017 -2.91702,0.28565 -4.3769,0.41401 -3.234,0.23408 -6.47471,0.33761 -9.71757,0.29874 -3.25287,-0.0159 -6.5051,-0.0701 -9.75717,-0.144 -3.96107,-0.0551 -3.97428,-0.37048 2.76952,3.3251 -0.07,-0.0904 -0.13025,-0.21894 -0.20024,-0.31837 -0.15731,-0.36332 -0.24288,-0.74772 -0.30141,-1.13895 -0.1026,-0.81742 -0.10519,-1.63595 -0.0696,-2.45871 0.10747,-3.48403 0.0689,-2.44171 -5.16658,-5.43964 -0.3804,-0.0115 -0.76184,-0.0425 -1.1442,-0.0458 -0.59722,-0.0302 -1.19571,-0.0306 -1.79196,-0.0801 -0.37399,-0.0231 -0.74683,-0.0296 -1.12118,-0.0363 -0.48293,0.003 -0.96494,0.0292 -1.44768,0.0425 -1.11567,-0.0207 -2.23076,-0.0696 -3.34701,-0.0617 -0.2767,-0.003 -0.60938,0.0324 -0.88312,-0.0257 -0.0452,-0.01 -0.0867,-0.084 -0.12549,-0.0589 -0.24298,0.15796 -0.27966,0.24401 -0.37011,0.42166 -0.0851,0.0959 -0.0211,0.24969 -0.0296,0.36983 0.0818,0.69825 0.21886,1.39113 0.34982,2.08142 0.15212,0.74513 0.37857,1.50004 0.36171,2.26455 -0.0189,0.23218 0.15481,0.21142 0.34226,0.37304 0.18112,0.14223 0.38912,0.38312 0.43752,0.6099 0.0111,0.17871 -0.83108,0.48767 0.14916,-0.13944 -0.0409,0.008 -0.0799,0.0253 -0.12121,0.03 -0.15779,0.002 -0.32153,0.0297 -0.47469,-0.0111 -0.0442,0.0102 -0.0779,0.0137 -0.14061,0.0188 -0.28222,0.0202 -0.56546,0.0678 -0.85046,0.0723 -0.52082,0.0313 -1.04257,0.0362 -1.56423,0.0267 -0.59692,-0.003 -1.19345,0.0133 -1.79039,0.005 -0.95515,0.008 -1.91021,0.025 -2.86548,0.0184 -1.17593,0.003 -2.35189,-0.009 -3.52752,-0.0358 -0.83624,-0.0227 -1.67259,-0.0797 -2.5092,-0.053 -0.99555,0.006 -1.991,0.0174 -2.98647,0.0317 -2.07794,0.0165 -4.15587,0.0169 -6.23385,0.009 -0.89098,-0.007 -1.78048,0.005 -2.67132,0.0212 -0.24586,0.005 -0.92322,-0.1393 -0.7374,0.0218 5.01971,4.35112 5.88438,1.78878 5.12395,3.93613 1.87237,-1.54224 0.29626,-0.19107 -5.336,-4.3535 -0.11829,-0.0874 -0.21906,0.35985 -0.34189,0.27894 1.87284,1.09277 3.74568,2.18555 5.61853,3.27832 -0.26635,0.0373 -0.37827,-0.41374 -0.52272,-0.58174 -0.47782,-1.26494 -0.47205,-2.67755 -0.61669,-4.00472 -0.2325,-2.59399 -0.38707,-5.1961 -0.56658,-7.79447 -0.15872,-2.44248 -0.35504,-4.88359 -0.44739,-7.32953 -0.0807,-2.19386 -0.12305,-4.38862 -0.0856,-6.58384 0.0967,-2.53975 -0.0733,-5.45559 -5.3016,-4.70481 -1.07244,0.24907 -2.20239,0.23231 -3.28353,0.42235 -3.85007,0.4581 -7.71103,0.83136 -11.58114,1.07229 -3.89204,0.19144 -7.7867,0.22578 -11.68315,0.19022 -2.96646,10e-4 -5.93308,-0.009 -8.89928,-0.0488 -0.39284,-0.0132 -1.40024,-0.22234 -1.25418,0.48753 0.23248,0.2041 0.33193,0.36906 0.37622,0.68186 0.16966,0.54935 0.45109,1.05675 0.57177,1.62193 0.24719,0.90797 0.52621,1.8034 0.85024,2.68711 0.39667,1.26725 0.5121,2.59019 0.57205,3.91353 0.10542,2.89253 0.0461,5.78718 -0.0727,8.67871 -0.14759,3.57485 -0.42028,7.15766 -1.13921,10.66884 0,0 4.80443,2.5641 4.80443,2.5641 z" />
    <path
       style="fill:#000000;fill-opacity:1"
       id="path7148"
       d="m 183.18736,361.79825 c 1.22445,-3.61593 2.31598,-7.26671 3.1682,-10.98834 0.64907,-2.93184 1.03212,-5.91261 1.49289,-8.8776 0.0809,-0.65724 0.21344,-1.3075 0.3013,-1.96356 0.0522,-0.37416 0.0136,0.19811 0.1162,0.22856 0.26997,0.08 0.55892,-0.0693 0.83837,-0.10389 3.88118,-0.31252 7.77696,-0.42181 11.66692,-0.58286 4.61765,-0.22546 9.23624,-0.42481 13.85844,-0.52659 1.96604,-0.0409 3.93121,-0.006 5.89477,0.0904 0.54117,0.0341 1.09149,0.03 1.62507,0.13794 0.0306,0.007 0.0837,0.0505 0.0919,0.0202 0.0588,-0.21631 -0.15082,-0.0498 -0.1524,-0.0508 -1.66283,-0.99778 -3.12152,-2.40427 -4.94458,-3.06531 -0.39054,-0.14161 -0.0479,0.82948 -0.0791,1.24372 -0.0397,0.5274 -0.0889,1.05404 -0.13332,1.58106 -0.37688,3.77463 -0.7248,7.55203 -1.0986,11.32698 -0.21938,2.52356 -0.52786,5.03759 -0.79995,7.55558 -0.097,0.98508 -0.22214,1.96694 -0.38403,2.94319 -0.034,0.93533 -0.3319,1.82956 -0.50782,2.74242 0.0495,0.37287 -0.40763,0.74198 -0.28765,1.10574 -2.18261,0.41706 5.03036,5.62985 5.67882,3.29786 -1.9946,-1.18449 -3.96637,-2.4083 -5.9838,-3.55346 -0.0554,-0.0314 -0.10185,0.15219 -0.0473,0.18509 2.01237,1.21398 4.01025,2.45417 6.0616,3.60105 0.0959,0.0536 0.0323,-0.21747 0.0546,-0.32502 -0.041,0.0336 0.10797,-0.33643 0.0759,-0.25407 -0.12561,0.32221 -0.48852,0.64088 -0.37471,0.96744 0.0263,0.0755 2.04065,0.17651 2.81982,0.23769 2.73489,0.22938 5.46906,0.40008 8.21385,0.41354 1.7651,-0.0441 3.5716,-0.18669 5.25427,-0.76585 0.70235,-0.24172 1.53222,-0.67175 2.19631,-0.99548 1.82085,-0.75483 3.24909,-1.97628 4.43608,-3.51874 0.44188,-0.6171 0.87408,-1.23288 1.18933,-1.92448 0.0329,-0.12035 0.26935,-0.39814 0.14894,-0.40252 -0.11063,-0.0927 -0.0667,-0.30578 -0.10928,-0.44798 0.62385,-1.15877 -5.00566,-4.89474 -5.57104,-3.15302 0.0911,0.50455 -0.15816,1.0771 -0.25883,1.57662 -0.10093,0.76501 -0.29501,1.52467 -0.33205,2.29684 -0.32622,3.99037 5.07729,4.33955 7.90117,4.51995 4.00294,0.16402 8.01044,0.2363 12.01661,0.26385 3.55792,0.0103 7.11335,-0.14251 10.6652,-0.33584 0.95225,-0.0747 1.91094,-0.0675 2.86292,-0.14485 2.52828,-0.24861 -3.08517,-4.16512 -5.44689,-4.4197 1.81263,1.39975 3.49754,2.98271 5.43789,4.19926 0.18903,0.11849 0.27862,-0.35495 0.36669,-0.55994 0.45745,-1.06472 0.48181,-3.01336 0.58799,-4.16757 0.22724,-3.70808 0.16005,-7.42245 -0.0593,-11.12823 -0.27399,-3.51292 -0.70197,-7.01108 -0.97892,-10.52384 -0.11948,-0.99217 -0.079,-1.99548 -0.15014,-2.98948 -0.36632,-2.28901 -2.87612,-2.46686 -5.4374,-3.45392 -0.25109,-0.0968 0.02,0.53783 0.03,0.80675 0.39955,2.85487 1.25835,5.62383 1.97839,8.40965 0.7318,2.73243 1.18524,5.52609 1.61141,8.31895 0.22331,1.78374 0.37006,3.57568 0.55516,5.36368 0.0804,1.0152 0.20988,2.02747 0.26275,3.04477 0.0434,0.34852 0.0204,0.69868 -0.008,1.0474 -0.0331,0.37152 -0.08,0.74138 -0.1091,1.11328 -0.012,0.0971 0.0377,0.17519 0.078,0.24011 1.76569,1.22166 3.47016,2.53693 5.29707,3.66499 0.0286,0.0177 1.47286,-6.7e-4 1.52564,-8.8e-4 1.17002,-0.005 2.33568,0.0247 3.50482,0.0685 3.39307,0.1728 6.77114,0.54245 10.15772,0.80273 3.38677,0.22244 6.77617,0.40139 10.16511,0.58694 1.63911,0.0682 3.27277,0.21653 4.90852,0.333 0.37609,0.0266 0.75306,0.0558 1.12971,0.0696 1.01601,-0.46332 0.3009,-0.64358 0.23486,-0.92618 -0.0435,-0.18621 -0.0141,-0.38221 -0.0211,-0.5733 -0.0223,-1.23699 0.32019,-2.43905 0.3742,-3.67006 0.0437,-1.00414 -0.0219,-1.39407 -0.10526,-2.41257 -0.36199,-2.70237 -0.83802,-5.38659 -0.96558,-8.113 0.0469,-1.76777 -0.18135,-3.50259 -0.4751,-5.23934 -0.20864,-1.08547 -0.27142,-2.18777 -0.33369,-3.28848 -0.10441,-0.94639 -0.0627,-1.89936 -0.0707,-2.84991 0.0156,-0.49789 -0.0664,-0.99512 -0.071,-1.4914 -1e-4,-0.0774 0.0173,-0.13963 0.0556,-0.20405 0,0 -5.54449,-3.14951 -5.54449,-3.14951 v 0 c 0.0868,-0.0394 0.0964,0.031 0.13942,0.11917 0.17465,0.47506 0.2351,0.99353 0.26221,1.49529 0.0604,0.93807 0.0288,1.86988 -0.0175,2.8076 0.0588,1.12828 0.14164,2.25316 0.31967,3.37056 0.336,1.73383 0.63891,3.47488 0.64113,5.24836 0.13818,2.68937 0.35845,5.36886 0.78419,8.03007 0.19785,1.97611 0.13502,3.92513 -0.43427,5.84483 -0.1601,0.80178 -0.66115,1.67537 0.48387,0.84352 -0.3291,0.0135 -0.65818,0.0131 -0.98775,0.008 -1.59163,-0.0517 -3.18112,-0.16218 -4.77305,-0.20832 -3.35583,-0.13079 -6.71215,-0.27272 -10.06172,-0.52035 -3.40017,-0.27637 -6.79624,-0.61204 -10.20215,-0.8112 -1.19158,-0.0493 -2.38078,-0.086 -3.57335,-0.0974 -3.03539,-0.029 -2.81911,-0.48674 2.89361,3.65864 0.0327,-0.0159 0.10944,-0.012 0.11809,-0.11925 0.0526,-0.36885 0.0862,-0.73961 0.12883,-1.10966 0.0447,-0.38732 0.10007,-0.77417 0.0536,-1.16423 -0.13646,-1.04678 -0.30388,-2.08993 -0.39953,-3.14166 -0.21008,-1.81117 -0.3395,-3.63162 -0.61157,-5.43527 -0.47929,-2.82725 -0.99174,-5.65297 -1.69295,-8.43478 -0.70289,-2.72763 -1.48599,-5.44244 -1.91803,-8.23063 -0.0181,-0.23795 0.12376,-0.55517 -0.0545,-0.71386 -1.61292,-1.4361 -3.43664,-2.61632 -5.15495,-3.92448 -0.0153,0.0152 -0.0272,0.0349 -0.046,0.0455 -0.0389,0.022 -0.095,0.017 -0.12398,0.051 -0.0751,0.0887 -0.0195,0.24918 -0.10807,0.33156 -0.12303,1.03446 0.18306,2.09252 0.21243,3.12289 0.40653,3.53173 0.8943,7.05594 1.15198,10.60307 0.21969,3.64289 0.34489,7.29838 -0.0439,10.93637 -0.13348,1.0952 -0.25061,2.19166 -0.44711,3.27786 -0.0205,0.11211 -0.18828,0.86293 -0.15242,0.89746 1.5937,1.53591 3.28282,2.9696 4.92422,4.4544 2.29543,-0.59665 -4.48867,-4.50841 -4.78583,-4.42313 -0.86772,0.13164 -1.73713,0.25116 -2.61254,0.3226 -3.47122,0.28932 -6.95119,0.46878 -10.43542,0.47553 -4.00869,-0.0207 -8.01627,-0.10288 -12.01948,-0.32491 -0.40593,-0.0386 -0.81348,-0.0625 -1.21792,-0.1144 -0.34807,-0.0447 -1.28371,-0.42586 -1.03809,-0.17527 1.28457,1.31092 2.87663,2.28163 4.27131,3.47473 0.0356,0.0304 -0.0701,0.0971 -0.11415,0.0816 -0.0917,-0.0323 0.31119,-0.25747 0.0798,-0.28045 0.15192,-0.73476 0.15854,-1.49759 0.3441,-2.22806 0.10302,-0.49602 0.17685,-1.06325 0.49179,-1.46703 -0.22335,-2.24358 -5.39916,-6.23566 -5.50002,-4.06682 -0.11892,0.16184 -0.12458,0.36797 -0.1994,0.55391 -0.14977,0.32168 0.1676,-0.25603 0.0935,0.0844 -0.18966,0.67056 -0.56118,1.29254 -0.9267,1.87743 -1.07469,1.45348 -2.41388,2.59716 -4.03485,3.41827 -2.39832,0.95197 -5.01072,1.27331 -7.58161,1.29859 -2.74011,1.1e-4 -5.46785,-0.2378 -8.1959,-0.47878 -0.54575,-0.06 -1.51459,-0.13706 -2.06747,-0.30009 -0.22131,-0.0652 -0.39971,-0.30393 -0.62981,-0.28708 -0.41722,0.0305 -0.78101,0.30303 -1.18275,0.4197 -0.0598,0.0174 0.11823,-0.1571 0.15069,-0.11024 0.0921,0.12267 0.051,0.0461 0.0963,0.24234 2.00924,1.39556 4.01847,2.79111 6.02772,4.18666 0.0589,0.0403 0.06,-0.17193 0.002,-0.21404 -1.94434,-1.42148 -3.93882,-2.77308 -5.90822,-4.15963 0.0248,2.36007 6.61448,6.37245 5.59275,4.1114 0.29915,-0.15036 0.047,-0.89027 0.27788,-1.11562 0.28396,-0.89605 0.53825,-1.8132 0.68087,-2.74238 0.0451,-1.02003 0.11869,-2.03851 0.21806,-3.05493 0.2194,-2.56091 0.37749,-5.1269 0.60477,-7.68726 0.29752,-3.77807 0.6588,-7.54998 1.10537,-11.31362 0.0611,-0.51754 0.12011,-1.03533 0.18368,-1.55256 0.0494,-0.40291 0.4101,-0.89165 0.15548,-1.20779 -1.98534,-2.46518 -2.99756,-4.2044 -5.20395,-4.66723 -0.49592,0.0597 -1.00291,-0.0217 -1.50047,0.009 -1.9087,0.004 -3.81727,0.004 -5.72418,0.10933 -4.58413,0.23659 -9.16862,0.45682 -13.75609,0.61931 -3.94102,0.16107 -7.88116,0.34383 -11.82338,0.47519 -0.38512,0.0131 -1.48099,-0.0999 -1.4271,0.60084 -0.0157,0.68827 -0.0367,1.37653 -0.10436,2.06239 -0.24575,3.01118 -0.65081,6.00747 -1.24288,8.97102 -0.80539,3.6871 -1.79489,7.33615 -3.26254,10.82229 0,0 4.7582,3.25635 4.7582,3.25635 z" />
    <path
       style="fill:#000000;fill-opacity:1"
       id="path7150"
       d="m 219.80954,387.0514 c -0.0122,4.06774 0.2677,8.12908 0.57516,12.18289 0.2644,3.43889 0.33902,6.88325 0.20559,10.32851 -0.0795,1.41289 -0.15056,2.8285 -0.3108,4.23512 -0.0552,0.32238 -0.0302,0.70238 -0.21587,0.98331 1.5516,4.73519 4.51577,3.28159 7.0932,2.84902 0.5708,-0.0958 1.14423,-0.17519 1.71634,-0.26277 5.05709,-0.65957 10.15853,-0.87972 15.24923,-1.11201 3.4897,-0.12795 6.98034,-0.26121 10.47282,-0.26845 0.62014,0.14016 1.3142,-0.097 1.92389,0.10981 0.0175,0.004 0.0352,0.009 0.0528,0.0129 -1.88634,-1.46798 -3.75731,-2.95592 -5.65902,-4.40394 -0.0444,-0.0338 -0.21044,-0.0498 -0.16667,-0.0153 1.93841,1.53304 3.86322,3.08371 5.82377,4.58835 0.0431,0.0331 0.10859,0.004 0.16289,0.006 -0.17324,-0.0925 0.11647,0.0267 0.0923,0.008 -1.31191,-1.03661 -14.50554,-11.29905 -0.14239,0.0176 0.38928,-0.0247 0.55544,-0.0723 1.13333,-0.0898 2.61685,-0.0105 5.23236,0.07 7.84711,0.16395 2.02513,0.0903 4.05185,0.083 6.07757,0.0261 1.53399,-0.0815 1.46968,0.0246 2.31842,-1.22722 1.12588,-2.16586 1.30512,-4.69077 1.35305,-7.08896 -0.22607,-3.97478 -1.13073,-7.88458 -2.01771,-11.75588 -0.9786,-3.9379 -2.16039,-7.81653 -2.93649,-11.80206 -0.34781,-1.9101 -0.57137,-3.83981 -0.60821,-5.78094 -0.0567,-0.12848 0.10449,-1.05087 -0.0959,-1.07476 -1.84998,-1.01421 -3.62348,-2.18247 -5.54992,-3.04262 -0.18763,-0.0838 0.0466,0.40968 0.0984,0.60853 0.0684,0.26291 0.16736,0.51702 0.26081,0.7721 0.367,1.00162 0.80719,1.97798 1.22394,2.95932 1.42101,3.10555 2.37564,6.3804 3.30049,9.65823 0.9659,3.35011 1.83019,6.72703 2.69083,10.10515 0.77195,3.06172 1.55138,6.11997 2.18722,9.21334 0.3976,2.0997 0.67451,4.22137 0.72462,6.35856 0.026,1.0343 -0.0616,2.06557 -0.13912,3.09578 -0.0714,0.69543 -0.11483,1.39324 -0.18058,2.08922 -0.0556,1.25323 -0.14684,2.50408 -0.25309,3.7539 -0.09,1.25905 -0.19096,2.51755 -0.31095,3.77412 -0.0247,0.32987 -0.0862,0.65655 -0.11181,0.98577 6.96981,3.98881 5.67573,4.21868 4.8477,0.73711 -0.5458,-3.27312 -0.4784,-6.6014 -0.75876,-9.89922 -0.2054,-2.16316 -0.82166,-4.25238 -1.23833,-6.3763 0.058,-0.50321 -0.32603,-0.94674 -0.33713,-1.43444 -0.002,-0.0827 0.22551,-0.15956 0.15151,-0.19646 -1.69633,-0.84583 -3.41979,-1.63613 -5.12967,-2.4542 1.91696,1.32474 3.78803,2.7185 5.75092,3.97421 0.3826,0.24476 0.83703,0.35364 1.26254,0.51248 2.25002,0.83994 4.58743,1.37919 6.91642,1.94681 3.04163,0.76904 6.18914,0.81245 9.30681,0.8384 1.80328,0.0336 3.60496,-0.0844 5.40779,-0.0513 0.36127,-0.0373 0.77196,0.0297 1.12118,-0.10009 0.59558,-1.23693 -1.37879,-1.46977 -2.15769,-1.8686 0,0 -1.06848,-0.59791 -1.06848,-0.59791 v 0 c -0.74871,-0.34066 -2.73044,-0.44217 -2.03827,-1.59959 -0.15295,0.0627 -0.56989,0.0866 -0.78317,0.0944 -1.69876,0.18119 -3.41036,0.20965 -5.11666,0.26089 -3.02233,0.0261 -6.0493,-0.0685 -9.00735,-0.76304 -2.36425,-0.54208 -4.73458,-1.16834 -6.96533,-2.14059 -0.43339,-0.18888 -1.63661,-0.9302 -1.26965,-0.63212 1.30165,1.05733 2.72861,1.95031 4.09291,2.92545 -1.92698,-1.11438 -3.85396,-2.22876 -5.78095,-3.34314 0.15689,0.10253 0.21455,0.11201 0.29023,0.32749 0.15045,0.42837 -0.0818,0.95188 0.18449,1.35903 0.45119,2.12529 1.00617,4.22866 1.35837,6.3734 0.14679,1.37195 0.2325,1.91576 0.26643,3.31577 0.0522,2.15401 -0.19121,4.31991 0.15828,6.46245 0.67922,4.1034 0.3882,2.26925 6.38636,5.87562 0.0243,-0.3425 0.0122,-0.68798 0.0371,-1.03102 0.0669,-1.2714 0.15215,-2.54193 0.24932,-3.81134 0.0784,-1.24187 0.16934,-2.48289 0.30414,-3.72013 0.0429,-0.70338 0.11278,-1.40468 0.15371,-2.1082 0.0784,-1.0682 0.10114,-2.13909 0.0865,-3.2101 -0.0908,-2.20342 -0.41676,-4.37883 -0.82761,-6.54471 -0.62482,-3.11796 -1.48312,-6.18488 -2.23102,-9.27486 -0.86939,-3.38983 -1.75626,-6.77441 -2.72308,-10.13813 -0.89118,-3.26462 -1.75961,-6.54452 -3.12503,-9.65193 -0.39398,-0.96422 -0.80012,-1.92438 -1.17813,-2.89506 -0.0891,-0.22869 -0.17722,-0.45778 -0.25923,-0.68909 -0.0603,-0.17026 -0.0228,-0.40755 -0.1678,-0.5153 -1.80334,-1.34036 -3.72745,-2.51006 -5.59118,-3.76509 -0.30352,0.16813 -0.13522,0.85462 -0.20564,1.11872 0.0359,2.0324 0.44174,4.03285 0.79889,6.02771 0.81337,3.99004 1.89033,7.90768 2.95738,11.83589 0.87605,3.7793 1.66336,7.59783 1.86564,11.4824 -0.0366,2.28089 -0.2252,4.61903 -1.22514,6.70818 -0.0872,0.12701 -0.15017,0.27456 -0.26149,0.38104 -0.2887,0.27612 -1.46699,0.12244 -1.8148,0.22447 -1.97455,0.0844 -3.9511,0.0846 -5.92684,0.04 -2.67054,-0.0709 -5.33886,-0.1989 -8.00937,-0.27007 -0.47574,-0.012 -0.92558,-0.0677 -1.3563,-0.079 1.7668,1.54873 3.52862,3.10313 5.30037,4.64617 0.035,0.0305 0.17168,0.006 0.1371,-0.025 -10.60505,-9.53022 -2.90854,-4.88689 -5.33048,-4.59909 -0.0469,0.004 -0.17587,-0.019 -0.14085,0.0121 5.59866,5.05444 8.38654,7.11779 0.33122,0.17842 -0.27992,0.31041 -1.0696,0.0709 -1.43771,0.26625 -3.37462,0.27524 -6.7632,0.33309 -10.14157,0.55017 -5.13529,0.28897 -10.27909,0.50626 -15.39525,1.05434 -1.19386,0.14342 -1.91466,0.18337 -3.02706,0.45726 -3.02774,0.74549 1.87001,2.29472 3.94662,3.77876 -0.11481,-0.36809 -0.0355,-0.77232 -0.0372,-1.14936 0.0577,-1.45465 0.16523,-2.90769 0.15656,-4.36456 0.0189,-3.48159 -3e-4,-6.96744 -0.29033,-10.43942 -0.26466,-3.96692 -0.59596,-7.95802 -0.31633,-11.93206 0,0 -5.04031,-3.05543 -5.04031,-3.05543 z" />
    <path
       style="fill:#000000;fill-opacity:1"
       d="m 46.831459,184.68241 c 1.516887,-2.74973 3.72555,-6.55175 5.757608,-10.21695 1.777542,-3.20614 36.471988,-63.32836 37.788884,-65.73917 l -37.622618,65.79058 c 4.193717,-0.89301 16.289404,-3.31028 19.376338,-6.67272 3.82984,-4.17166 28.551419,-70.693393 24.698062,-71.159184 C 92.976378,96.219175 66.68757,127.61608 57.382085,146.70217 53.82183,154.00444 51.96913,169.46822 51.341063,173.69738 51.234024,174.41819 88.96919,108.4606 88.96919,108.4606 l -37.379036,65.40884 z"
       id="path10199"
       sodipodi:nodetypes="csccszscccc"
       inkscape:transform-center-x="-0.28671321"
       inkscape:transform-center-y="-1.6342399" />
    <path
       style="fill:#000000;fill-opacity:1"
       d="m 473.8785,188.84082 c -1.57566,-2.71647 -3.86556,-6.47012 -5.97596,-10.09078 -1.84607,-3.16717 -37.82524,-62.52948 -39.19368,-64.91142 l 39.02856,64.9664 c -4.21195,-0.80264 -16.35682,-2.95926 -19.51533,-6.25454 -3.91866,-4.08835 -30.06488,-70.06314 -26.22243,-70.61168 3.84245,-0.54853 30.80027,30.27585 40.514,49.15743 3.71645,7.22404 5.90122,22.6444 6.62008,26.85908 0.12251,0.71833 -39.02216,-64.41261 -39.02216,-64.41261 l 38.77683,64.58998 z"
       id="path10199-8"
       sodipodi:nodetypes="csccszscccc" />
  </g>
</svg>
